<?xml version="1.0" encoding="UTF-8" standalone="no"?>
<svg
   width="9.3741522in"
   height="6.958323in"
   viewBox="0 0 674.94 501.00002"
   version="1.1"
   id="svg1"
   sodipodi:docname="icon.svg"
   inkscape:version="1.4.1 (93de688d07, 2025-03-30)"
   xmlns:inkscape="http://www.inkscape.org/namespaces/inkscape"
   xmlns:sodipodi="http://sodipodi.sourceforge.net/DTD/sodipodi-0.dtd"
   xmlns="http://www.w3.org/2000/svg"
   xmlns:svg="http://www.w3.org/2000/svg">
  <defs
     id="defs1" />
  <sodipodi:namedview
     id="namedview1"
     pagecolor="#ffffff"
     bordercolor="#000000"
     borderopacity="0.25"
     inkscape:showpageshadow="2"
     inkscape:pageopacity="0.0"
     inkscape:pagecheckerboard="0"
     inkscape:deskcolor="#d1d1d1"
     inkscape:document-units="in"
     inkscape:zoom="0.61816501"
     inkscape:cx="710.97521"
     inkscape:cy="580.75108"
     inkscape:window-width="1876"
     inkscape:window-height="1052"
     inkscape:window-x="0"
     inkscape:window-y="0"
     inkscape:window-maximized="1"
     inkscape:current-layer="svg1" />
  <path
     id="Auswahl"
     fill="none"
     stroke="black"
     stroke-width="1"
     d="m 325,459 c -17.48,17.48 -38.89,35.39 -65,35.99 -25.14,0.57 -36.03,-14.26 -60,-13.99 -16.26,0.19 -28.05,8.49 -43,12.01 -10.7,2.94 -20.36,2.26 -31,0 C 102.74,487.29 83.48,471.48 67,455 35.81,423.81 13.63,379.15 5,336 2.66,324.31 0.02,308.81 0,297 0,297 0,272 0,272 0.02,261.71 2.35,249.09 4.58,239 13.87,196.94 37.41,155.55 77,135.75 c 11.52,-5.76 26.01,-10.59 39,-10.75 24.04,-0.28 39.65,2.48 62,11.6 5.42,2.22 15.83,9.26 20.2,2.29 1.91,-3.55 2.8,-14.28 0,-17.67 -1.61,-2.36 -4.44,-3.14 -7.2,-3.79 -13.56,-3.23 -22.22,-4.94 -35,-11.75 C 135.81,94.91 122.24,75.26 115,54 110.75,41.52 110.25,35.67 108.58,23 107.78,17 107.12,10.19 111.56,5.34 115.8,0.7 123.1,0.03 129,0 c 0,0 7,0 7,0 19.75,0.09 45.71,13.780001 58.91,28 12.77,13.76 17.35,29.14 24.09,46 7.89,-12.08 11.49,-17.83 21.29,-29 7.79,-8.88 21.35,-21.12 32.71,-24.9 10.3,-3.42 17.33,3.93 13.91,11.9 C 284.16,38.43 266.24,50.92 260,57.010001 243.65,72.97 234.96,86.94 226.6,108 c -2.56,6.46 -5.71,15.17 -6.6,22 -0.34,2.67 -0.98,6.38 0.87,8.65 1.97,2.43 4.66,1.41 7.13,0.53 0,0 18,-7.58 18,-7.58 23.03,-9.14 45.28,-11.36 69,-3.6 0,-15.17 -0.49,-23.35 5.45,-37.999999 10.08,-24.85 37.43,-44.96 64.55,-45 0,0 218,0 218,0 37.82,0.06 70.94,34.37 71,71.999999 0,0 0,131 0,131 0,0 0.94,15.83 0.94,15.83 0,0 0,11.17 0,11.17 0,0 0,150 0,150 -0.01,42.33 -36.36,75.94 -77.94,76 0,0 -209,0 -209,0 -25.68,-0.3 -52.85,-18.57 -63,-42 z M 133.23,22.600001 c -1.36,0.98 -1.68,0.73 -2.49,2.55 -2.34,5.25 2.71,20.519999 4.86,25.85 8.33,20.57 22.61,36.9 44.4,43.14 3.87,1.11 15.04,4.05 18.57,2.29 2.75,-1.38 2.52,-5.82 2.34,-8.43 -0.43,-6.27 -4.1,-17.14 -6.63,-23 -9.57,-22.16 -16.96,-27.7 -38.28,-37.3 -7.1,-3.2 -14.85,-6.94 -22.77,-5.1 z m 245.77,44.5 c -24.83,4.89 -41.96,24.53 -42,49.899999 0,0 0,104 0,104 0,0 0,83 0,83 0,0 1,20 1,20 0,0 0,99 0,99 0.04,28.77 19.7,54.95 50,55 0,0 171,0 171,0 0,0 28,0 28,0 19.39,0 30.83,0.94 47,-12.46 21.43,-17.78 19.97,-43.6 20,-68.54 0,0 0,-47 0,-47 0,0 -1,-22 -1,-22 0,0 0,-210 0,-210 -0.04,-28.199999 -22.76,-50.959999 -51,-50.899999 0,0 -147,0 -147,0 z M 420,100.43 c 10.59,-1.279997 23.65,2.36 30.79,10.59 3.49,4.02 6.98,13.33 0.98,16.96 -5.18,3.13 -10.2,-1.78 -13.77,-4.89 -4.28,-3.73 -9.13,-6.33 -15,-5.75 -18.17,1.8 -25.41,21.42 -18.64,36.66 4.51,10.16 17.45,14.89 27.64,10.47 5.66,-2.45 8.49,-6.64 12,-8.52 4.73,-2.55 10.38,-0.41 11.48,5.05 1.19,5.9 -3.99,11.87 -8.48,14.9 -10.48,7.05 -23.02,8.42 -35,5.22 C 392.51,175.91 385.17,162 384.09,143 c -0.54,-9.58 3.43,-21.55 9.43,-28.99 6.85,-8.5 16.11,-11.88 26.48,-13.58 z m 81,1.26 c 6.9,-0.92 12.36,2.24 15.78,8.31 0,0 12.91,37 12.91,37 1.97,5.52 8.13,21.22 8.6,26 0.53,5.32 -2.33,10.37 -8.29,9.72 -7.75,-0.84 -8.51,-10.05 -11.65,-13.41 -2.54,-2.72 -5.94,-2.3 -9.35,-2.31 -3.7,-0.01 -16.01,-0.65 -18.61,1.02 -3.02,1.95 -8.06,20.6 -18.16,12.42 -6.23,-5.05 -1.09,-14.54 1.09,-20.44 0,0 15.26,-41 15.26,-41 2.9,-7.69 4.08,-13.92 12.42,-17.31 z M 573,166 c 0,0 22,0 22,0 2.15,0.02 4.95,-0.1 6.85,1.02 4.03,2.39 4.17,10.31 0.72,13.24 -2.41,2.05 -6.58,1.74 -9.57,1.74 0,0 -25,0 -25,0 -3.73,-0.05 -7.55,-0.21 -10.11,-3.39 -2.17,-2.71 -1.88,-6.35 -1.89,-9.61 0,0 0,-51 0,-51 0.09,-6.42 1.93,-13.01 9.98,-11.76 6.18,0.96 6.95,6.6 7.02,11.76 z m -69,-40 c 0,0 -9,24 -9,24 0,0 18,0 18,0 z m -226,18.14 c -28.37,4.48 -35.17,15.2 -64,21.06 -2.46,0.5 -6.64,1.46 -9,1.46 -9.16,0.03 -22.5,-6.29 -31,-9.8 -13.48,-5.57 -32.4,-11.69 -47,-11.86 -29.579997,-0.34 -54.73,12.06 -73.54,35 -6.47,7.89 -11.18,16.92 -15.71,26 -24.51,49.15 -20.17,110.62 -1.7,161 12.57,34.27 35.33,70.69 65.95,91.33 11.92,8.03 26.22,15.99 41,15.66 18.97,-0.44 38.5,-13.77 57,-13.99 8.62,-0.1 14.78,0.45 23,3.44 11.1,4.03 23.08,11.13 35,11.52 17.16,0.55 31.88,-12.03 44,-22.54 4.17,-3.61 13.15,-11.21 14.86,-16.42 0.22,-1.86 0.14,-5.01 0,-7 0,0 0,-40 0,-40 0,0 -0.86,-23 -0.86,-23 0,0 0,-164 0,-164 0,0 0,-35 0,-35 0,-4.38 0.66,-12.23 -1.85,-15.79 -3.86,-5.46 -17.81,-7.18 -24.15,-7.07 z m 101.02,69.56 c 5.51,-1.25 15,-0.7 20.98,-0.7 0,0 39,0 39,0 0,0 122,0 122,0 0,0 39,0 39,0 7.15,0.01 15.2,1.49 13.76,11 -1.16,7.67 -7.59,7.99 -13.76,8 0,0 -202,0 -202,0 -6.55,0.03 -13.81,2.11 -19.96,-0.82 -7.52,-3.57 -8.23,-13.1 0.98,-17.48 z m 6.98,48.86 c 0,0 29,-0.56 29,-0.56 4.5,0 10.94,-0.47 14.96,1.57 8.55,4.35 3.15,12.09 -2.96,15.49 -4,2.24 -8.66,0.99 -13,0.94 -5.69,-0.06 -25.01,0.86 -28.99,-1.17 -1.75,-0.91 -3.28,-2.35 -4.52,-3.87 -5.29,-6.48 -0.86,-10.16 5.51,-12.4 z M 469,275 c 0.49,-8.38 4.11,-9.89 12,-10 0,0 26,0 26,0 7.35,0.09 15.16,1.91 14,11 8.38,-1.71 9.92,5.3 10,12 0,0 0,28 0,28 -0.01,3.58 0.11,7.68 -1.43,11 -1.63,3.52 -4.51,5.8 -7.57,8 -2.48,-2.51 -6,-5.68 -7.26,-9 -0.87,-2.28 -0.74,-5.55 -0.74,-8 0,0 0,-22 0,-22 0,-6.81 -1.11,-10.18 3,-16 -7.45,3.15 -16.05,2 -24,2 -5.92,0 -12.29,0.62 -18,-1 0.94,3.85 0.98,5.07 1,9 0,0 0,29 0,29 -0.02,3.37 0.14,6.01 -1.74,9 -6.42,10.24 -14.18,5.43 -14.26,-6 0,0 -1,-17 -1,-17 0,0 0,-15 0,-15 0.01,-6.8 0.73,-16.13 10,-15 z m 93,5 c -1.57,-1.78 -3.51,-3.65 -4.21,-6 -2.01,-6.83 6.26,-8.93 11.21,-9 0,0 28,0 28,0 6.92,0.09 13.38,1.52 12,10 9.21,-2.3 9.97,4.89 10,12 0,0 0,31 0,31 -0.01,4.56 -1.67,16.39 -9,13.83 -3.55,-1.24 -6.92,-6.24 -7.66,-9.83 -1.42,-6.93 0.51,-14.11 0.59,-21 0.09,-8.25 -2.26,-12.94 1.07,-21 -7.89,3.65 -30.3,2 -40,2 0,0 0,21 0,21 0,0 0,17 0,17 -0.06,4.4 -2.73,14.26 -9,12.66 -5.84,-1.48 -6.97,-8.74 -7,-13.66 0,0 0,-30 0,-30 0.01,-4.13 -0.24,-12.03 5.05,-13.26 2.96,-0.68 6.6,2.66 8.95,4.26 z m -132,48 c -4.11,-5.82 -3,-9.19 -3,-16 0,0 0,-24 0,-24 0.04,-6.23 0.95,-8.65 6,-12.77 3.78,-3.08 7.24,-3.25 9.26,1.79 0.87,2.17 0.74,5.62 0.74,7.98 0,0 0,38 0,38 -0.12,6.73 -1.56,10.38 -9,9 3.22,8.71 -3.76,10.9 -11,11 0,0 -21,0 -21,0 -2.76,0 -8.62,0.25 -11,-0.59 -2.85,-1.02 -8.47,-5.48 -9.34,-8.45 -2.34,-7.92 9.4,-8.94 14.34,-8.96 11.17,-0.05 23.69,-1.83 34,3 z m 40,-53 c 0,0 -1,0 -1,0 0,0 1,1 1,1 z m 1,1 c 0,0 -1,0 -1,0 0,0 1,1 1,1 z m 50,0 c 0,0 -1,0 -1,0 0,0 1,1 1,1 z m -49,1 c 0,0 -1,0 -1,0 0,0 1,1 1,1 z m 48,0 c 0,0 -1,0 -1,0 0,0 1,1 1,1 z m 87,0 c 0,0 -1,0 -1,0 0,0 1,1 1,1 z m -134,1 c 0,0 -1,0 -1,0 0,0 1,1 1,1 z m 46,0 c 0,0 -1,0 -1,0 0,0 1,1 1,1 z m 87,0 c 0,0 -1,0 -1,0 0,0 1,1 1,1 z m -132,1 c 0,0 -1,0 -1,0 0,0 1,1 1,1 z m 44,0 c 0,0 -1,0 -1,0 0,0 1,1 1,1 z m 87,0 c 0,0 -1,0 -1,0 0,0 1,1 1,1 z m -130,1 c 0,0 -1,0 -1,0 0,0 1,1 1,1 z m 88,0 c 0,0 -1,0 -1,0 0,0 1,1 1,1 z m 1,1 c 0,0 -1,0 -1,0 0,0 1,1 1,1 z m -133,47 c 0,0 -1,0 -1,0 0,0 1,1 1,1 z m 1,1 c 0,0 -1,0 -1,0 0,0 1,1 1,1 z m 1,1 c 0,0 -1,0 -1,0 0,0 1,1 1,1 z m 1,1 c 0,0 -1,0 -1,0 0,0 1,1 1,1 z m -55.98,5.88 c 4.78,0.04 9.69,4.45 11.2,9.12 0.69,2.73 0.11,9.88 0,12.96 0.03,6.74 2.25,22.26 0,28.04 -0.82,2.25 -2.55,4.28 -4.26,5.94 -1.29,1.26 -3.15,2.93 -4.96,3.32 -7.45,1.6 -7.99,-9.66 -8,-14.26 0,0 0,-34 0,-34 0.08,-5.7 0.58,-8.46 6.02,-11.12 z M 611,336 c 4.26,1.36 7.39,4.59 8.86,9 0.35,2.37 0.14,10.1 0,13 0,0 0,25 0,25 0.13,4.92 0.32,9.25 -3.97,12.67 -1.55,1.23 -2.93,1.84 -4.89,1.16 -3.07,-1.06 -6.9,-5.69 -7.9,-8.83 0,0 0,-12 0,-12 0,0 0,-24 0,-24 -0.04,-9.38 2.6,-8.58 7.9,-16 z m -144.98,2.34 c 7.73,0.34 8.97,7.38 8.98,13.66 0,0 0,31 0,31 -0.11,5.51 -3.23,11.16 -8.98,12.79 -7.22,2.05 -7.01,-12.62 -6.98,-16.79 0,0 0,-14 0,-14 0,0 0.96,-12 0.96,-12 0.01,-6.74 -0.57,-10.86 6.02,-14.66 z M 523,337 c 11.62,9.09 7.02,16.7 7,29 0,0 0,20 0,20 -0.06,4.24 -0.94,10.14 -6.02,11.26 -4.31,0.95 -9.26,-5.69 -10.42,-9.26 -0.67,-2.05 -0.56,-4.83 -0.56,-7 0,0 0,-22 0,-22 0,-3.02 -0.29,-9.38 0.74,-11.96 1.24,-3.11 6.68,-7.51 9.26,-10.04 z m 31.97,1.17 c 6.31,-0.58 8.93,6.48 9.03,11.83 0,0 0,31 0,31 0,2.11 0.12,5.04 -0.6,7 -1.22,3.36 -6.21,9.66 -10.36,8.34 -5.36,-1.69 -3.79,-9.84 -4.32,-14.34 0,0 -0.72,-24 -0.72,-24 0,-8.8 -1.56,-14.44 6.97,-19.83 z M 439,398 c -2.42,2.72 -4.55,5.56 -8.01,6.99 -3.33,1.38 -9.27,1.01 -12.99,1.01 0,0 -25,0 -25,0 -3.79,-0.05 -11.39,-0.58 -11.26,-5.98 0.14,-5.3 9.71,-10.63 14.26,-11.22 9.26,-1.82 12.83,0.1 21,0 11.29,0.33 15.44,-2.03 22,9.2 z m 37,-7.98 c 5.51,-1.84 23.27,-1.14 30,-1.02 1.57,0.03 3.44,0.02 4.91,0.6 3.83,1.51 10.56,8.89 7.47,13.17 -2.57,3.58 -7.5,3.22 -11.38,3.09 0,0 -28,0 -28,0 -1.53,0.12 -3.53,0.12 -5,0 -10.84,-3.3 -3.61,-12.09 2,-15.84 z m 90,0 c 5.46,-1.83 22.39,-1.14 29,-1.02 8.38,0.16 17.03,8.48 13.38,13.87 -2.95,4.36 -8.75,4.12 -13.38,3.99 0,0 -27,0 -27,0 -1.52,0.12 -3.53,0.12 -4.98,0 -11.28,-3.46 -2.43,-13.23 2.98,-16.84 z m -159,47.46 c 9.95,-1.44 15.69,0.51 25,0.52 0,0 28,0 28,0 0,0 116,0 116,0 3.44,0.01 6.95,-0.27 9.92,1.74 5.79,3.85 6.32,12.26 0,15.81 -2.98,1.65 -6.65,1.44 -9.92,1.45 0,0 -163,0 -163,0 -4.14,-0.01 -8.43,0.26 -11.87,-2.51 -6.59,-5.31 -4.39,-14.25 5.87,-17.01 z"
     style="fill:#000000;stroke:none" />
</svg>
